<svg viewBox="0 0 1180 640" xmlns="http://www.w3.org/2000/svg" role="img" aria-label="GitHub analytics dashboard">

<defs>
  <linearGradient id="chartRed" x1="0" y1="0" x2="0" y2="1">
    <stop offset="0%" stop-color="#E8482C"/>
    <stop offset="100%" stop-color="#B6371F"/>
  </linearGradient>
  <filter id="cardShadow" x="-30%" y="-30%" width="160%" height="160%">
    <feDropShadow dx="0" dy="6" stdDeviation="10" flood-color="#000000" flood-opacity="0.55"/>
  </filter>
  <style>
    .titlefont { font-family:'Consolas','SFMono-Regular',monospace; font-weight:700; letter-spacing:2px; fill:#F2F2F2; }
    .statlabel { font-family:'Consolas',monospace; font-size:13px; fill:#9A9A9A; letter-spacing:0.5px; }
    .statval { font-family:'Consolas',monospace; font-size:15px; fill:#F2F2F2; font-weight:700; }
    .sectiontitle { font-family:'Consolas',monospace; font-size:15px; font-weight:700; fill:#F2F2F2; letter-spacing:1.5px; }
    .legendtext { font-family:'Consolas',monospace; font-size:12px; fill:#C9C9C9; }
    .axislabel { font-family:'Consolas',monospace; font-size:10px; fill:#6E6E6E; }
    .footlabel { font-family:'Consolas',monospace; font-size:12px; fill:#8A8A8A; letter-spacing:0.5px; }
    .footval { font-family:'Consolas',monospace; font-size:22px; font-weight:700; fill:#F2F2F2; }
    .nodata { font-family:'Consolas',monospace; font-size:12px; fill:#5A5A5A; letter-spacing:1px; }
  </style>
</defs>

<rect x="0" y="0" width="1180" height="640" rx="18" fill="#050505"/>
<rect x="1" y="1" width="1178" height="638" rx="17" fill="none" stroke="#2B2B2B" stroke-width="1"/>

<rect x="46" y="30" width="16" height="8" rx="1.5" fill="#2B2B2B"/>
<rect x="76" y="30" width="16" height="8" rx="1.5" fill="#2B2B2B"/>
<rect x="106" y="30" width="8" height="8" rx="1.5" fill="#2B2B2B"/>
<rect x="128" y="30" width="16" height="8" rx="1.5" fill="#2B2B2B"/>
<rect x="158" y="30" width="16" height="8" rx="1.5" fill="#2B2B2B"/>
<rect x="188" y="30" width="8" height="8" rx="1.5" fill="#2B2B2B"/>
<rect x="210" y="30" width="16" height="8" rx="1.5" fill="#2B2B2B"/>
<rect x="240" y="30" width="16" height="8" rx="1.5" fill="#2B2B2B"/>
<rect x="270" y="30" width="8" height="8" rx="1.5" fill="#2B2B2B"/>
<rect x="292" y="30" width="16" height="8" rx="1.5" fill="#2B2B2B"/>
<rect x="322" y="30" width="16" height="8" rx="1.5" fill="#2B2B2B"/>
<rect x="352" y="30" width="8" height="8" rx="1.5" fill="#2B2B2B"/>
<rect x="374" y="30" width="16" height="8" rx="1.5" fill="#2B2B2B"/>
<rect x="404" y="30" width="16" height="8" rx="1.5" fill="#2B2B2B"/>
<rect x="434" y="30" width="8" height="8" rx="1.5" fill="#2B2B2B"/>
<rect x="456" y="30" width="16" height="8" rx="1.5" fill="#2B2B2B"/>
<rect x="486" y="30" width="16" height="8" rx="1.5" fill="#2B2B2B"/>
<rect x="516" y="30" width="8" height="8" rx="1.5" fill="#2B2B2B"/>
<rect x="538" y="30" width="16" height="8" rx="1.5" fill="#2B2B2B"/>
<rect x="568" y="30" width="16" height="8" rx="1.5" fill="#2B2B2B"/>

    <path d="M46,20 L40,20 L40,50" fill="none" stroke="#DEDEDE" stroke-width="2"/>
    <path d="M1134,20 L1140,20 L1140,50" fill="none" stroke="#DEDEDE" stroke-width="2"/>

<text x="46" y="96" class="titlefont" font-size="40">GITHUB</text>
<text x="46" y="140" class="titlefont" font-size="40">OVERVIEW</text>


    <path d="M846,49 L840,49 L840,69" fill="none" stroke="#4D4D4D" stroke-width="1.4"/>
    <path d="M1066,49 L1072,49 L1072,69" fill="none" stroke="#4D4D4D" stroke-width="1.4"/>
<text x="856" y="64" class="statlabel">COMMITS</text>
<text x="1052" y="64" text-anchor="end" class="statval">—</text>

    <path d="M846,83 L840,83 L840,103" fill="none" stroke="#4D4D4D" stroke-width="1.4"/>
    <path d="M1066,83 L1072,83 L1072,103" fill="none" stroke="#4D4D4D" stroke-width="1.4"/>
<text x="856" y="98" class="statlabel">CURRENT STREAK</text>
<text x="1052" y="98" text-anchor="end" class="statval">—</text>

    <path d="M846,117 L840,117 L840,137" fill="none" stroke="#4D4D4D" stroke-width="1.4"/>
    <path d="M1066,117 L1072,117 L1072,137" fill="none" stroke="#4D4D4D" stroke-width="1.4"/>
<text x="856" y="132" class="statlabel">LONGEST STREAK</text>
<text x="1052" y="132" text-anchor="end" class="statval">—</text>

    <path d="M846,151 L840,151 L840,171" fill="none" stroke="#4D4D4D" stroke-width="1.4"/>
    <path d="M1066,151 L1072,151 L1072,171" fill="none" stroke="#4D4D4D" stroke-width="1.4"/>
<text x="856" y="166" class="statlabel">REPOSITORIES</text>
<text x="1052" y="166" text-anchor="end" class="statval">—</text>
<g filter="url(#cardShadow)"><rect x="46" y="190" width="1088" height="400" rx="14" fill="#0A0A0A" stroke="#2B2B2B" stroke-width="1.2"/></g>
<text x="70" y="230" class="sectiontitle">GITHUB ANALYTICS</text>

    <path d="M70,252 L64,252 L64,272" fill="none" stroke="#3A3A3A" stroke-width="1.2"/>
    <path d="M300,252 L306,252 L306,272" fill="none" stroke="#3A3A3A" stroke-width="1.2"/>
<circle cx="84" cy="262" r="4.5" fill="#E8482C"/>
<text x="98" y="266" class="legendtext">Commits</text>

    <path d="M370,252 L364,252 L364,272" fill="none" stroke="#3A3A3A" stroke-width="1.2"/>
    <path d="M600,252 L606,252 L606,272" fill="none" stroke="#3A3A3A" stroke-width="1.2"/>
<circle cx="384" cy="262" r="4.5" fill="#F2812A"/>
<text x="398" y="266" class="legendtext">Pull Requests</text>

    <path d="M70,282 L64,282 L64,302" fill="none" stroke="#3A3A3A" stroke-width="1.2"/>
    <path d="M300,282 L306,282 L306,302" fill="none" stroke="#3A3A3A" stroke-width="1.2"/>
<circle cx="84" cy="292" r="4.5" fill="#F5A623"/>
<text x="98" y="296" class="legendtext">Issues</text>

    <path d="M370,282 L364,282 L364,302" fill="none" stroke="#3A3A3A" stroke-width="1.2"/>
    <path d="M600,282 L606,282 L606,302" fill="none" stroke="#3A3A3A" stroke-width="1.2"/>
<circle cx="384" cy="292" r="4.5" fill="#F7D774"/>
<text x="398" y="296" class="legendtext">Reviews</text>
<line x1="70" y1="510.0" x2="1110" y2="510.0" stroke="#1E1E1E" stroke-width="1"/>
<line x1="70" y1="476.0" x2="1110" y2="476.0" stroke="#1E1E1E" stroke-width="1"/>
<line x1="70" y1="442.0" x2="1110" y2="442.0" stroke="#1E1E1E" stroke-width="1"/>
<line x1="70" y1="408.0" x2="1110" y2="408.0" stroke="#1E1E1E" stroke-width="1"/>
<line x1="70" y1="374.0" x2="1110" y2="374.0" stroke="#1E1E1E" stroke-width="1"/>
<line x1="70" y1="340.0" x2="1110" y2="340.0" stroke="#1E1E1E" stroke-width="1"/>
<line x1="70.0" y1="340" x2="70.0" y2="510" stroke="#161616" stroke-width="1"/>
<line x1="174.0" y1="340" x2="174.0" y2="510" stroke="#161616" stroke-width="1"/>
<line x1="278.0" y1="340" x2="278.0" y2="510" stroke="#161616" stroke-width="1"/>
<line x1="382.0" y1="340" x2="382.0" y2="510" stroke="#161616" stroke-width="1"/>
<line x1="486.0" y1="340" x2="486.0" y2="510" stroke="#161616" stroke-width="1"/>
<line x1="590.0" y1="340" x2="590.0" y2="510" stroke="#161616" stroke-width="1"/>
<line x1="694.0" y1="340" x2="694.0" y2="510" stroke="#161616" stroke-width="1"/>
<line x1="798.0" y1="340" x2="798.0" y2="510" stroke="#161616" stroke-width="1"/>
<line x1="902.0" y1="340" x2="902.0" y2="510" stroke="#161616" stroke-width="1"/>
<line x1="1006.0" y1="340" x2="1006.0" y2="510" stroke="#161616" stroke-width="1"/>
<line x1="1110.0" y1="340" x2="1110.0" y2="510" stroke="#161616" stroke-width="1"/>
<rect x="70" y="340" width="1040" height="170" fill="none" stroke="#2B2B2B" stroke-width="1"/>
<text x="590.0" y="425.0" text-anchor="middle" class="nodata">CONTRIBUTION DATA NOT AVAILABLE — SOURCE COULD NOT BE VERIFIED</text>
<text x="590.0" y="532" text-anchor="middle" class="axislabel">DAYS</text>
<text x="70.0" y="550" class="footlabel">TOTAL CONTRIBUTIONS</text>
<text x="70.0" y="578" class="footval">—</text>
<line x1="310.0" y1="534" x2="310.0" y2="572" stroke="#232323" stroke-width="1"/>
<text x="330.0" y="550" class="footlabel">PUBLIC REPOSITORIES</text>
<text x="330.0" y="578" class="footval">—</text>
<line x1="570.0" y1="534" x2="570.0" y2="572" stroke="#232323" stroke-width="1"/>
<text x="590.0" y="550" class="footlabel">FOLLOWERS</text>
<text x="590.0" y="578" class="footval">—</text>
<line x1="830.0" y1="534" x2="830.0" y2="572" stroke="#232323" stroke-width="1"/>
<text x="850.0" y="550" class="footlabel">FOLLOWING</text>
<text x="850.0" y="578" class="footval">—</text>
<text x="46" y="618" class="axislabel">SOURCE: github.com/nahhhndy — LIVE DATA UNAVAILABLE AT RENDER TIME</text>
<text x="1134" y="618" text-anchor="end" class="axislabel">RENDER OK</text>
</svg>