<svg viewBox="0 0 1180 692" xmlns="http://www.w3.org/2000/svg" role="img" aria-label="Tech stack pyramid">
<defs>
  <linearGradient id="bgGradP" x1="0" y1="0" x2="1" y2="1">
    <stop offset="0%" stop-color="#0F0F0F"/>
    <stop offset="100%" stop-color="#050505"/>
  </linearGradient>
  <filter id="pyrShadow" x="-30%" y="-30%" width="160%" height="160%">
    <feDropShadow dx="0" dy="6" stdDeviation="10" flood-color="#000000" flood-opacity="0.5"/>
  </filter>
  <radialGradient id="apexGlow" cx="50%" cy="0%" r="60%">
    <stop offset="0%" stop-color="#DEDEDE" stop-opacity="0.10"/>
    <stop offset="100%" stop-color="#DEDEDE" stop-opacity="0"/>
  </radialGradient>

  <linearGradient id="layerGrad0" x1="0" y1="0" x2="0" y2="1">
    <stop offset="0%" stop-color="#12131A" stop-opacity="0.92"/>
    <stop offset="100%" stop-color="#0B0C12" stop-opacity="0.92"/>
  </linearGradient>

  <linearGradient id="layerGrad1" x1="0" y1="0" x2="0" y2="1">
    <stop offset="0%" stop-color="#151620" stop-opacity="0.92"/>
    <stop offset="100%" stop-color="#0B0C12" stop-opacity="0.92"/>
  </linearGradient>

  <linearGradient id="layerGrad2" x1="0" y1="0" x2="0" y2="1">
    <stop offset="0%" stop-color="#181926" stop-opacity="0.92"/>
    <stop offset="100%" stop-color="#0B0C12" stop-opacity="0.92"/>
  </linearGradient>

  <linearGradient id="layerGrad3" x1="0" y1="0" x2="0" y2="1">
    <stop offset="0%" stop-color="#1B1C2C" stop-opacity="0.92"/>
    <stop offset="100%" stop-color="#0B0C12" stop-opacity="0.92"/>
  </linearGradient>

  <linearGradient id="layerGrad4" x1="0" y1="0" x2="0" y2="1">
    <stop offset="0%" stop-color="#1E1F33" stop-opacity="0.92"/>
    <stop offset="100%" stop-color="#0B0C12" stop-opacity="0.92"/>
  </linearGradient>

  <linearGradient id="layerGrad5" x1="0" y1="0" x2="0" y2="1">
    <stop offset="0%" stop-color="#212239" stop-opacity="0.92"/>
    <stop offset="100%" stop-color="#0B0C12" stop-opacity="0.92"/>
  </linearGradient>
</defs>

<rect x="0" y="0" width="1180" height="692" fill="url(#bgGradP)" rx="20"/>
<rect x="1" y="1" width="1178" height="690" rx="19" fill="none" stroke="#2B2B2B" stroke-width="1"/>
<ellipse cx="590.0" cy="36" rx="260" ry="90" fill="url(#apexGlow)"/>

<text x="590.0" y="28" text-anchor="middle" fill="#DEDEDE" font-family="Segoe UI,sans-serif" font-size="14" font-weight="700" letter-spacing="4">TECH STACK</text>

<g filter="url(#pyrShadow)">
<path d="M128.0,556.0 L1052.0,556.0 L1130.0,652.0 L50.0,652.0 Z" fill="url(#layerGrad0)" stroke="#4D4D4D" stroke-width="1" stroke-opacity="0.55"/>
<line x1="128.0" y1="556.0" x2="1052.0" y2="556.0" stroke="#979797" stroke-opacity="0.25" stroke-width="1"/>
<text x="590.0" y="576.0" text-anchor="middle" fill="#979797" font-family="Consolas,monospace" font-size="9.5" letter-spacing="3">PROGRAMMING LANGUAGES</text>

    <g transform="translate(191.0,590.0)">
      <rect x="0" y="0" width="150.0" height="46" rx="10" fill="rgba(15,15,15,0.55)" stroke="#4D4D4D" stroke-width="0.9"/>
      <rect x="0" y="0" width="150.0" height="46" rx="10" fill="none" stroke="#DEDEDE" stroke-opacity="0.06" stroke-width="1"/>
      <circle cx="17" cy="23" r="8.5" fill="#3776AB" fill-opacity="0.16" stroke="#3776AB" stroke-width="1.1"/>
      <text x="17" y="26.2" text-anchor="middle" font-family="Consolas,monospace" font-size="8" font-weight="700" fill="#3776AB">PY</text>
      <text x="31" y="27" font-family="Segoe UI,sans-serif" font-size="11" fill="#DEDEDE">Python</text>
    </g>

    <g transform="translate(353.0,590.0)">
      <rect x="0" y="0" width="150.0" height="46" rx="10" fill="rgba(15,15,15,0.55)" stroke="#4D4D4D" stroke-width="0.9"/>
      <rect x="0" y="0" width="150.0" height="46" rx="10" fill="none" stroke="#DEDEDE" stroke-opacity="0.06" stroke-width="1"/>
      <circle cx="17" cy="23" r="8.5" fill="#EA2D2E" fill-opacity="0.16" stroke="#EA2D2E" stroke-width="1.1"/>
      <text x="17" y="26.2" text-anchor="middle" font-family="Consolas,monospace" font-size="8" font-weight="700" fill="#EA2D2E">JA</text>
      <text x="31" y="27" font-family="Segoe UI,sans-serif" font-size="11" fill="#DEDEDE">Java</text>
    </g>

    <g transform="translate(515.0,590.0)">
      <rect x="0" y="0" width="150.0" height="46" rx="10" fill="rgba(15,15,15,0.55)" stroke="#4D4D4D" stroke-width="0.9"/>
      <rect x="0" y="0" width="150.0" height="46" rx="10" fill="none" stroke="#DEDEDE" stroke-opacity="0.06" stroke-width="1"/>
      <circle cx="17" cy="23" r="8.5" fill="#F7DF1E" fill-opacity="0.16" stroke="#F7DF1E" stroke-width="1.1"/>
      <text x="17" y="26.2" text-anchor="middle" font-family="Consolas,monospace" font-size="8" font-weight="700" fill="#F7DF1E">JA</text>
      <text x="31" y="27" font-family="Segoe UI,sans-serif" font-size="11" fill="#DEDEDE">JavaScript</text>
    </g>

    <g transform="translate(677.0,590.0)">
      <rect x="0" y="0" width="150.0" height="46" rx="10" fill="rgba(15,15,15,0.55)" stroke="#4D4D4D" stroke-width="0.9"/>
      <rect x="0" y="0" width="150.0" height="46" rx="10" fill="none" stroke="#DEDEDE" stroke-opacity="0.06" stroke-width="1"/>
      <circle cx="17" cy="23" r="8.5" fill="#3178C6" fill-opacity="0.16" stroke="#3178C6" stroke-width="1.1"/>
      <text x="17" y="26.2" text-anchor="middle" font-family="Consolas,monospace" font-size="8" font-weight="700" fill="#3178C6">TY</text>
      <text x="31" y="27" font-family="Segoe UI,sans-serif" font-size="11" fill="#DEDEDE">TypeScript</text>
    </g>

    <g transform="translate(839.0,590.0)">
      <rect x="0" y="0" width="150.0" height="46" rx="10" fill="rgba(15,15,15,0.55)" stroke="#4D4D4D" stroke-width="0.9"/>
      <rect x="0" y="0" width="150.0" height="46" rx="10" fill="none" stroke="#DEDEDE" stroke-opacity="0.06" stroke-width="1"/>
      <circle cx="17" cy="23" r="8.5" fill="#4479A1" fill-opacity="0.16" stroke="#4479A1" stroke-width="1.1"/>
      <text x="17" y="26.2" text-anchor="middle" font-family="Consolas,monospace" font-size="8" font-weight="700" fill="#4479A1">SQ</text>
      <text x="31" y="27" font-family="Segoe UI,sans-serif" font-size="11" fill="#DEDEDE">SQL</text>
    </g>
<path d="M206.0,454.0 L974.0,454.0 L1052.0,550.0 L128.0,550.0 Z" fill="url(#layerGrad1)" stroke="#4D4D4D" stroke-width="1" stroke-opacity="0.55"/>
<line x1="206.0" y1="454.0" x2="974.0" y2="454.0" stroke="#979797" stroke-opacity="0.25" stroke-width="1"/>
<text x="590.0" y="474.0" text-anchor="middle" fill="#979797" font-family="Consolas,monospace" font-size="9.5" letter-spacing="3">DATABASES</text>

    <g transform="translate(353.0,488.0)">
      <rect x="0" y="0" width="150.0" height="46" rx="10" fill="rgba(15,15,15,0.55)" stroke="#4D4D4D" stroke-width="0.9"/>
      <rect x="0" y="0" width="150.0" height="46" rx="10" fill="none" stroke="#DEDEDE" stroke-opacity="0.06" stroke-width="1"/>
      <circle cx="17" cy="23" r="8.5" fill="#4169E1" fill-opacity="0.16" stroke="#4169E1" stroke-width="1.1"/>
      <text x="17" y="26.2" text-anchor="middle" font-family="Consolas,monospace" font-size="8" font-weight="700" fill="#4169E1">PO</text>
      <text x="31" y="27" font-family="Segoe UI,sans-serif" font-size="11" fill="#DEDEDE">PostgreSQL</text>
    </g>

    <g transform="translate(515.0,488.0)">
      <rect x="0" y="0" width="150.0" height="46" rx="10" fill="rgba(15,15,15,0.55)" stroke="#4D4D4D" stroke-width="0.9"/>
      <rect x="0" y="0" width="150.0" height="46" rx="10" fill="none" stroke="#DEDEDE" stroke-opacity="0.06" stroke-width="1"/>
      <circle cx="17" cy="23" r="8.5" fill="#47A248" fill-opacity="0.16" stroke="#47A248" stroke-width="1.1"/>
      <text x="17" y="26.2" text-anchor="middle" font-family="Consolas,monospace" font-size="8" font-weight="700" fill="#47A248">MO</text>
      <text x="31" y="27" font-family="Segoe UI,sans-serif" font-size="11" fill="#DEDEDE">MongoDB</text>
    </g>

    <g transform="translate(677.0,488.0)">
      <rect x="0" y="0" width="150.0" height="46" rx="10" fill="rgba(15,15,15,0.55)" stroke="#4D4D4D" stroke-width="0.9"/>
      <rect x="0" y="0" width="150.0" height="46" rx="10" fill="none" stroke="#DEDEDE" stroke-opacity="0.06" stroke-width="1"/>
      <circle cx="17" cy="23" r="8.5" fill="#3ECF8E" fill-opacity="0.16" stroke="#3ECF8E" stroke-width="1.1"/>
      <text x="17" y="26.2" text-anchor="middle" font-family="Consolas,monospace" font-size="8" font-weight="700" fill="#3ECF8E">SU</text>
      <text x="31" y="27" font-family="Segoe UI,sans-serif" font-size="11" fill="#DEDEDE">Supabase</text>
    </g>
<path d="M284.0,352.0 L896.0,352.0 L974.0,448.0 L206.0,448.0 Z" fill="url(#layerGrad2)" stroke="#4D4D4D" stroke-width="1" stroke-opacity="0.55"/>
<line x1="284.0" y1="352.0" x2="896.0" y2="352.0" stroke="#979797" stroke-opacity="0.25" stroke-width="1"/>
<text x="590.0" y="372.0" text-anchor="middle" fill="#979797" font-family="Consolas,monospace" font-size="9.5" letter-spacing="3">FRAMEWORKS</text>

    <g transform="translate(255.7,386.0)">
      <rect x="0" y="0" width="101.4" height="46" rx="10" fill="rgba(15,15,15,0.55)" stroke="#4D4D4D" stroke-width="0.9"/>
      <rect x="0" y="0" width="101.4" height="46" rx="10" fill="none" stroke="#DEDEDE" stroke-opacity="0.06" stroke-width="1"/>
      <circle cx="17" cy="23" r="8.5" fill="#61DAFB" fill-opacity="0.16" stroke="#61DAFB" stroke-width="1.1"/>
      <text x="17" y="26.2" text-anchor="middle" font-family="Consolas,monospace" font-size="8" font-weight="700" fill="#61DAFB">RE</text>
      <text x="31" y="27" font-family="Segoe UI,sans-serif" font-size="9.8" fill="#DEDEDE">React</text>
    </g>

    <g transform="translate(369.1,386.0)">
      <rect x="0" y="0" width="101.4" height="46" rx="10" fill="rgba(15,15,15,0.55)" stroke="#4D4D4D" stroke-width="0.9"/>
      <rect x="0" y="0" width="101.4" height="46" rx="10" fill="none" stroke="#DEDEDE" stroke-opacity="0.06" stroke-width="1"/>
      <circle cx="17" cy="23" r="8.5" fill="#DEDEDE" fill-opacity="0.16" stroke="#DEDEDE" stroke-width="1.1"/>
      <text x="17" y="26.2" text-anchor="middle" font-family="Consolas,monospace" font-size="8" font-weight="700" fill="#DEDEDE">NE</text>
      <text x="31" y="27" font-family="Segoe UI,sans-serif" font-size="9.8" fill="#DEDEDE">Next.js</text>
    </g>

    <g transform="translate(482.6,386.0)">
      <rect x="0" y="0" width="101.4" height="46" rx="10" fill="rgba(15,15,15,0.55)" stroke="#4D4D4D" stroke-width="0.9"/>
      <rect x="0" y="0" width="101.4" height="46" rx="10" fill="none" stroke="#DEDEDE" stroke-opacity="0.06" stroke-width="1"/>
      <circle cx="17" cy="23" r="8.5" fill="#38BDF8" fill-opacity="0.16" stroke="#38BDF8" stroke-width="1.1"/>
      <text x="17" y="26.2" text-anchor="middle" font-family="Consolas,monospace" font-size="8" font-weight="700" fill="#38BDF8">TA</text>
      <text x="31" y="27" font-family="Segoe UI,sans-serif" font-size="9.8" fill="#DEDEDE">Tailwind</text>
    </g>

    <g transform="translate(596.0,386.0)">
      <rect x="0" y="0" width="101.4" height="46" rx="10" fill="rgba(15,15,15,0.55)" stroke="#4D4D4D" stroke-width="0.9"/>
      <rect x="0" y="0" width="101.4" height="46" rx="10" fill="none" stroke="#DEDEDE" stroke-opacity="0.06" stroke-width="1"/>
      <circle cx="17" cy="23" r="8.5" fill="#009688" fill-opacity="0.16" stroke="#009688" stroke-width="1.1"/>
      <text x="17" y="26.2" text-anchor="middle" font-family="Consolas,monospace" font-size="8" font-weight="700" fill="#009688">FA</text>
      <text x="31" y="27" font-family="Segoe UI,sans-serif" font-size="9.8" fill="#DEDEDE">FastAPI</text>
    </g>

    <g transform="translate(709.4,386.0)">
      <rect x="0" y="0" width="101.4" height="46" rx="10" fill="rgba(15,15,15,0.55)" stroke="#4D4D4D" stroke-width="0.9"/>
      <rect x="0" y="0" width="101.4" height="46" rx="10" fill="none" stroke="#DEDEDE" stroke-opacity="0.06" stroke-width="1"/>
      <circle cx="17" cy="23" r="8.5" fill="#339933" fill-opacity="0.16" stroke="#339933" stroke-width="1.1"/>
      <text x="17" y="26.2" text-anchor="middle" font-family="Consolas,monospace" font-size="8" font-weight="700" fill="#339933">NO</text>
      <text x="31" y="27" font-family="Segoe UI,sans-serif" font-size="9.8" fill="#DEDEDE">Node.js</text>
    </g>

    <g transform="translate(822.9,386.0)">
      <rect x="0" y="0" width="101.4" height="46" rx="10" fill="rgba(15,15,15,0.55)" stroke="#4D4D4D" stroke-width="0.9"/>
      <rect x="0" y="0" width="101.4" height="46" rx="10" fill="none" stroke="#DEDEDE" stroke-opacity="0.06" stroke-width="1"/>
      <circle cx="17" cy="23" r="8.5" fill="#DEDEDE" fill-opacity="0.16" stroke="#DEDEDE" stroke-width="1.1"/>
      <text x="17" y="26.2" text-anchor="middle" font-family="Consolas,monospace" font-size="8" font-weight="700" fill="#DEDEDE">EX</text>
      <text x="31" y="27" font-family="Segoe UI,sans-serif" font-size="9.8" fill="#DEDEDE">Express</text>
    </g>
<path d="M362.0,250.0 L818.0,250.0 L896.0,346.0 L284.0,346.0 Z" fill="url(#layerGrad3)" stroke="#4D4D4D" stroke-width="1" stroke-opacity="0.55"/>
<line x1="362.0" y1="250.0" x2="818.0" y2="250.0" stroke="#979797" stroke-opacity="0.25" stroke-width="1"/>
<text x="590.0" y="270.0" text-anchor="middle" fill="#979797" font-family="Consolas,monospace" font-size="9.5" letter-spacing="3">AI ENGINEERING</text>

    <g transform="translate(333.7,284.0)">
      <rect x="0" y="0" width="75.4" height="46" rx="10" fill="rgba(15,15,15,0.55)" stroke="#4D4D4D" stroke-width="0.9"/>
      <rect x="0" y="0" width="75.4" height="46" rx="10" fill="none" stroke="#DEDEDE" stroke-opacity="0.06" stroke-width="1"/>
      <circle cx="17" cy="23" r="8.5" fill="#EE4C2C" fill-opacity="0.16" stroke="#EE4C2C" stroke-width="1.1"/>
      <text x="17" y="26.2" text-anchor="middle" font-family="Consolas,monospace" font-size="8" font-weight="700" fill="#EE4C2C">PY</text>
      <text x="31" y="27" font-family="Segoe UI,sans-serif" font-size="8.6" fill="#DEDEDE">PyTorch</text>
    </g>

    <g transform="translate(421.1,284.0)">
      <rect x="0" y="0" width="75.4" height="46" rx="10" fill="rgba(15,15,15,0.55)" stroke="#4D4D4D" stroke-width="0.9"/>
      <rect x="0" y="0" width="75.4" height="46" rx="10" fill="none" stroke="#DEDEDE" stroke-opacity="0.06" stroke-width="1"/>
      <circle cx="17" cy="23" r="8.5" fill="#FF6F00" fill-opacity="0.16" stroke="#FF6F00" stroke-width="1.1"/>
      <text x="17" y="26.2" text-anchor="middle" font-family="Consolas,monospace" font-size="8" font-weight="700" fill="#FF6F00">TE</text>
      <text x="31" y="27" font-family="Segoe UI,sans-serif" font-size="8.6" fill="#DEDEDE">TensorFlow</text>
    </g>

    <g transform="translate(508.6,284.0)">
      <rect x="0" y="0" width="75.4" height="46" rx="10" fill="rgba(15,15,15,0.55)" stroke="#4D4D4D" stroke-width="0.9"/>
      <rect x="0" y="0" width="75.4" height="46" rx="10" fill="none" stroke="#DEDEDE" stroke-opacity="0.06" stroke-width="1"/>
      <circle cx="17" cy="23" r="8.5" fill="#F7931E" fill-opacity="0.16" stroke="#F7931E" stroke-width="1.1"/>
      <text x="17" y="26.2" text-anchor="middle" font-family="Consolas,monospace" font-size="8" font-weight="700" fill="#F7931E">SL</text>
      <text x="31" y="27" font-family="Segoe UI,sans-serif" font-size="8.6" fill="#DEDEDE">Scikit-learn</text>
    </g>

    <g transform="translate(596.0,284.0)">
      <rect x="0" y="0" width="75.4" height="46" rx="10" fill="rgba(15,15,15,0.55)" stroke="#4D4D4D" stroke-width="0.9"/>
      <rect x="0" y="0" width="75.4" height="46" rx="10" fill="none" stroke="#DEDEDE" stroke-opacity="0.06" stroke-width="1"/>
      <circle cx="17" cy="23" r="8.5" fill="#3AA675" fill-opacity="0.16" stroke="#3AA675" stroke-width="1.1"/>
      <text x="17" y="26.2" text-anchor="middle" font-family="Consolas,monospace" font-size="8" font-weight="700" fill="#3AA675">LA</text>
      <text x="31" y="27" font-family="Segoe UI,sans-serif" font-size="8.6" fill="#DEDEDE">LangChain</text>
    </g>

    <g transform="translate(683.4,284.0)">
      <rect x="0" y="0" width="75.4" height="46" rx="10" fill="rgba(15,15,15,0.55)" stroke="#4D4D4D" stroke-width="0.9"/>
      <rect x="0" y="0" width="75.4" height="46" rx="10" fill="none" stroke="#DEDEDE" stroke-opacity="0.06" stroke-width="1"/>
      <circle cx="17" cy="23" r="8.5" fill="#DEDEDE" fill-opacity="0.16" stroke="#DEDEDE" stroke-width="1.1"/>
      <text x="17" y="26.2" text-anchor="middle" font-family="Consolas,monospace" font-size="8" font-weight="700" fill="#DEDEDE">OP</text>
      <text x="31" y="27" font-family="Segoe UI,sans-serif" font-size="8.6" fill="#DEDEDE">OpenAI</text>
    </g>

    <g transform="translate(770.9,284.0)">
      <rect x="0" y="0" width="75.4" height="46" rx="10" fill="rgba(15,15,15,0.55)" stroke="#4D4D4D" stroke-width="0.9"/>
      <rect x="0" y="0" width="75.4" height="46" rx="10" fill="none" stroke="#DEDEDE" stroke-opacity="0.06" stroke-width="1"/>
      <circle cx="17" cy="23" r="8.5" fill="#4285F4" fill-opacity="0.16" stroke="#4285F4" stroke-width="1.1"/>
      <text x="17" y="26.2" text-anchor="middle" font-family="Consolas,monospace" font-size="8" font-weight="700" fill="#4285F4">GE</text>
      <text x="31" y="27" font-family="Segoe UI,sans-serif" font-size="8.6" fill="#DEDEDE">Gemini</text>
    </g>
<path d="M440.0,148.0 L740.0,148.0 L818.0,244.0 L362.0,244.0 Z" fill="url(#layerGrad4)" stroke="#4D4D4D" stroke-width="1" stroke-opacity="0.55"/>
<line x1="440.0" y1="148.0" x2="740.0" y2="148.0" stroke="#979797" stroke-opacity="0.25" stroke-width="1"/>
<text x="590.0" y="168.0" text-anchor="middle" fill="#979797" font-family="Consolas,monospace" font-size="9.5" letter-spacing="3">DEVOPS</text>

    <g transform="translate(411.7,182.0)">
      <rect x="0" y="0" width="80.2" height="46" rx="10" fill="rgba(15,15,15,0.55)" stroke="#4D4D4D" stroke-width="0.9"/>
      <rect x="0" y="0" width="80.2" height="46" rx="10" fill="none" stroke="#DEDEDE" stroke-opacity="0.06" stroke-width="1"/>
      <circle cx="17" cy="23" r="8.5" fill="#2496ED" fill-opacity="0.16" stroke="#2496ED" stroke-width="1.1"/>
      <text x="17" y="26.2" text-anchor="middle" font-family="Consolas,monospace" font-size="8" font-weight="700" fill="#2496ED">DO</text>
      <text x="31" y="27" font-family="Segoe UI,sans-serif" font-size="8.6" fill="#DEDEDE">Docker</text>
    </g>

    <g transform="translate(503.8,182.0)">
      <rect x="0" y="0" width="80.2" height="46" rx="10" fill="rgba(15,15,15,0.55)" stroke="#4D4D4D" stroke-width="0.9"/>
      <rect x="0" y="0" width="80.2" height="46" rx="10" fill="none" stroke="#DEDEDE" stroke-opacity="0.06" stroke-width="1"/>
      <circle cx="17" cy="23" r="8.5" fill="#F05032" fill-opacity="0.16" stroke="#F05032" stroke-width="1.1"/>
      <text x="17" y="26.2" text-anchor="middle" font-family="Consolas,monospace" font-size="8" font-weight="700" fill="#F05032">GI</text>
      <text x="31" y="27" font-family="Segoe UI,sans-serif" font-size="8.6" fill="#DEDEDE">Git</text>
    </g>

    <g transform="translate(596.0,182.0)">
      <rect x="0" y="0" width="80.2" height="46" rx="10" fill="rgba(15,15,15,0.55)" stroke="#4D4D4D" stroke-width="0.9"/>
      <rect x="0" y="0" width="80.2" height="46" rx="10" fill="none" stroke="#DEDEDE" stroke-opacity="0.06" stroke-width="1"/>
      <circle cx="17" cy="23" r="8.5" fill="#DEDEDE" fill-opacity="0.16" stroke="#DEDEDE" stroke-width="1.1"/>
      <text x="17" y="26.2" text-anchor="middle" font-family="Consolas,monospace" font-size="8" font-weight="700" fill="#DEDEDE">GI</text>
      <text x="31" y="27" font-family="Segoe UI,sans-serif" font-size="8.6" fill="#DEDEDE">GitHub</text>
    </g>

    <g transform="translate(688.2,182.0)">
      <rect x="0" y="0" width="80.2" height="46" rx="10" fill="rgba(15,15,15,0.55)" stroke="#4D4D4D" stroke-width="0.9"/>
      <rect x="0" y="0" width="80.2" height="46" rx="10" fill="none" stroke="#DEDEDE" stroke-opacity="0.06" stroke-width="1"/>
      <circle cx="17" cy="23" r="8.5" fill="#FCC624" fill-opacity="0.16" stroke="#FCC624" stroke-width="1.1"/>
      <text x="17" y="26.2" text-anchor="middle" font-family="Consolas,monospace" font-size="8" font-weight="700" fill="#FCC624">LI</text>
      <text x="31" y="27" font-family="Segoe UI,sans-serif" font-size="8.6" fill="#DEDEDE">Linux</text>
    </g>
<path d="M506.0,46.0 L674.0,46.0 L740.0,142.0 L440.0,142.0 Z" fill="url(#layerGrad5)" stroke="#4D4D4D" stroke-width="1" stroke-opacity="0.55"/>
<line x1="506.0" y1="46.0" x2="674.0" y2="46.0" stroke="#979797" stroke-opacity="0.25" stroke-width="1"/>
<text x="590.0" y="66.0" text-anchor="middle" fill="#979797" font-family="Consolas,monospace" font-size="9.5" letter-spacing="3">DESIGN</text>

    <g transform="translate(515.0,80.0)">
      <rect x="0" y="0" width="150.0" height="46" rx="10" fill="rgba(15,15,15,0.55)" stroke="#4D4D4D" stroke-width="0.9"/>
      <rect x="0" y="0" width="150.0" height="46" rx="10" fill="none" stroke="#DEDEDE" stroke-opacity="0.06" stroke-width="1"/>
      <circle cx="17" cy="23" r="8.5" fill="#F24E1E" fill-opacity="0.16" stroke="#F24E1E" stroke-width="1.1"/>
      <text x="17" y="26.2" text-anchor="middle" font-family="Consolas,monospace" font-size="8" font-weight="700" fill="#F24E1E">FI</text>
      <text x="31" y="27" font-family="Segoe UI,sans-serif" font-size="11" fill="#DEDEDE">Figma</text>
    </g>
</g>

</svg>